<svg width="32" height="32" viewBox="0 0 32 32" fill="none" xmlns="http://www.w3.org/2000/svg">
<path d="M9.60888 32C8.72806 32 7.9743 31.6869 7.34759 31.0608C6.71981 30.4336 6.40592 29.68 6.40592 28.8C6.40592 27.92 6.71981 27.1664 7.34759 26.5392C7.9743 25.9131 8.72806 25.6 9.60888 25.6C10.4897 25.6 11.2435 25.9131 11.8702 26.5392C12.4979 27.1664 12.8118 27.92 12.8118 28.8C12.8118 29.68 12.4979 30.4336 11.8702 31.0608C11.2435 31.6869 10.4897 32 9.60888 32ZM25.6237 32C24.7429 32 23.9891 31.6869 23.3624 31.0608C22.7346 30.4336 22.4207 29.68 22.4207 28.8C22.4207 27.92 22.7346 27.1664 23.3624 26.5392C23.9891 25.9131 24.7429 25.6 25.6237 25.6C26.5045 25.6 27.2588 25.9131 27.8866 26.5392C28.5133 27.1664 28.8266 27.92 28.8266 28.8C28.8266 29.68 28.5133 30.4336 27.8866 31.0608C27.2588 31.6869 26.5045 32 25.6237 32ZM8.24762 6.4L12.0912 14.4H23.3015L27.7056 6.4H8.24762ZM6.72621 3.2H30.348C30.9619 3.2 31.429 3.47307 31.7493 4.0192C32.0696 4.5664 32.083 5.12 31.7894 5.68L26.1041 15.92C25.8105 16.4533 25.4165 16.8667 24.9222 17.16C24.429 17.4533 23.8887 17.6 23.3015 17.6H11.3705L9.60888 20.8H28.8266V24H9.60888C8.40777 24 7.50026 23.4731 6.88636 22.4192C6.27246 21.3664 6.24577 20.32 6.80629 19.28L8.96829 15.36L3.20296 3.2H0V0H5.20481L6.72621 3.2ZM12.0912 14.4H23.3015H12.0912Z" fill="black"/>
</svg>
