<?xml version="1.0" encoding="iso-8859-1"?>
<!-- Uploaded to: SVG Repo, www.svgrepo.com, Transformed by: SVG Repo Mixer Tools -->
<svg height="800px" width="800px" version="1.1" id="Layer_1" xmlns="http://www.w3.org/2000/svg" xmlns:xlink="http://www.w3.org/1999/xlink" 
	 viewBox="0 0 504.492 504.492" xml:space="preserve">
<g transform="translate(1 1)">
	<g>
		<path style="fill:#FDCC00;" d="M246.607,224.515L246.607,224.515c-7.554-5.875-9.233-15.948-3.357-23.502l15.108-20.144
			c5.875-7.554,15.948-9.233,23.502-3.357l0,0c7.554,5.875,9.233,15.948,3.357,23.502l-15.108,20.144
			C264.233,228.712,254.161,230.391,246.607,224.515"/>
		<path style="fill:#FDCC00;" d="M302.003,258.089L302.003,258.089c-7.554-5.875-9.233-15.948-3.357-23.502l15.108-20.144
			c5.875-7.554,15.948-9.233,23.502-3.357l0,0c7.554,5.875,9.233,15.948,3.357,23.502l-15.108,20.144
			C319.629,262.286,309.557,263.965,302.003,258.089"/>
	</g>
	<g>
		<path style="fill:#FFE100;" d="M494.213,301.735L494.213,301.735c1.679,10.072-49.521,21.823-62.951,27.698
			c-2.518,0.839-5.036,2.518-6.715,4.197c-0.839,0.839-1.679,1.679-3.357,2.518c-3.357,2.518-7.554,3.357-10.911,3.357H67.826H24.18
			c-10.911,15.108-9.233,25.18-4.197,31.895c5.036,6.715,12.59,10.072,20.984,10.072h331.541c37.77,0,74.702-8.393,108.275-24.341
			l4.197-1.679C495.052,350.417,494.213,301.735,494.213,301.735"/>
		<path style="fill:#FFE100;" d="M457.282,280.751c-25.18,0.839-52.879-14.269-52.879-14.269l-67.148-26.859l-10.911,14.269
			c-5.036,6.715-14.269,9.233-21.823,5.875c-9.233-5.036-11.751-16.787-5.875-25.18l7.554-10.072
			c-9.233-5.036-17.626-10.911-26.02-16.787l-9.233,12.59c-5.036,6.715-14.269,9.233-21.823,5.875
			c-9.233-5.036-11.751-16.787-5.875-25.18l10.911-14.269c-5.875-5.875-11.751-11.751-17.626-18.466
			c-20.984-24.341-46.164-49.521-61.272-47.003c-3.357,0.839-6.715,1.679-10.911,2.518c-6.715,15.948-25.18,31.895-49.521,40.289
			c-25.18,8.393-50.361,5.875-64.63-4.197c-5.036-2.518-10.911-5.036-16.787-5.036h-0.839v83.934c0,0-50.361,42.807-8.393,100.721
			h44.485h341.613c5.036,0,10.072-1.679,13.43-5.036c1.679-2.518,4.197-4.197,7.554-5.036c13.43-5.036,64.63-17.626,62.951-27.698
			C492.534,289.984,482.462,279.912,457.282,280.751"/>
	</g>
	<path style="fill:#63D3FD;" d="M259.197,280.751c0,14.269-10.911,25.18-25.18,25.18c-14.269,0-25.18-10.911-25.18-25.18
		s10.911-25.18,25.18-25.18C248.285,255.571,259.197,266.483,259.197,280.751"/>
	<g>
		<path style="fill:#FDCC00;" d="M37.61,339.505h30.216h50.361c7.554-5.036,14.269-11.751,17.626-21.823
			c5.875-15.108,56.236-96.525,100.721-149.403l0,0c-20.984-24.341-46.164-49.521-61.272-47.003
			c-3.357,0.839-6.715,1.679-10.911,2.518c-6.715,15.948-25.18,31.895-49.521,40.289c-5.036,1.679-10.072,2.518-15.108,3.357
			C76.22,225.355,44.325,300.896,44.325,300.896L37.61,339.505z"/>
		<path style="fill:#FDCC00;" d="M363.275,250.535c-20.984,26.859-38.61,53.718-38.61,53.718l-5.036,35.252h83.934
			c5.875-5.036,10.911-10.911,14.269-18.466c2.518-7.554,17.626-23.502,36.092-40.289c-24.341-0.839-49.521-14.269-49.521-14.269
			L363.275,250.535z"/>
	</g>
	<path style="fill:#FFFFFF;" d="M45.164,371.401c-5.036-6.715-7.554-16.787,4.197-31.895H24.18
		c-10.911,15.108-9.233,25.18-4.197,31.895c5.036,6.715,12.59,10.072,20.984,10.072h25.18
		C57.754,381.473,50.2,378.115,45.164,371.401"/>
	<g>
		<path style="fill:#FFA800;" d="M494.213,301.735L494.213,301.735c0.839,5.036-10.911,10.072-25.18,15.108
			c-0.839,14.269-2.518,34.413-8.393,37.771l-4.197,1.679c-33.574,15.948-70.505,24.341-107.436,24.341h24.341
			c37.771,0,74.702-8.393,108.275-24.341l4.197-1.679C495.892,350.417,494.213,301.735,494.213,301.735"/>
		<path style="fill:#FFA800;" d="M431.262,329.433c13.43-5.036,63.79-17.626,62.951-27.698
			c-1.679-11.751-11.751-21.823-36.092-20.984h-25.18c25.18-0.839,35.252,9.233,36.092,20.984
			c0.839,10.072-36.092,21.823-50.361,27.698H431.262z"/>
	</g>
	<path style="fill:#FFFFFF;" d="M32.574,154.85v83.934c0,0-50.361,42.807-8.393,100.721h25.18
		c-41.967-57.915,8.393-100.721,8.393-100.721V154.85H32.574z"/>
	<path d="M256.679,236.266c-5.875,0-10.911-1.679-15.108-5.036c-10.911-8.393-13.43-24.341-5.036-35.252l15.108-20.144
		c5.036-6.715,11.751-10.072,20.144-10.072c5.875,0,10.911,1.679,15.108,5.036c5.036,4.197,9.233,10.072,10.072,16.787
		c0.839,6.715-0.839,13.43-5.036,18.466l-15.108,20.144C271.787,232.909,264.233,236.266,256.679,236.266z M271.787,182.548
		c-2.518,0-5.036,0.839-6.715,3.357l-15.108,20.144c-2.518,3.357-1.679,9.233,1.679,11.751c3.357,2.518,9.233,1.679,11.751-1.679
		l15.108-20.144c1.679-1.679,1.679-4.197,1.679-5.875c0-1.679-1.679-4.197-3.357-5.875
		C275.144,183.387,273.466,182.548,271.787,182.548z"/>
	<path d="M312.075,269.84c-5.875,0-10.911-1.679-15.108-5.036c-10.911-8.393-13.43-24.341-5.036-35.252l15.108-20.144
		c5.036-6.715,11.751-10.072,20.144-10.072c5.875,0,10.911,1.679,15.108,5.036c5.036,4.197,9.233,10.072,10.072,16.787
		s-0.839,13.43-5.036,18.466l-15.108,20.144C327.184,266.483,320.469,269.84,312.075,269.84z M327.184,216.122
		c-2.518,0-5.036,0.839-6.715,3.357l-15.108,20.144c-2.518,3.357-1.679,9.233,1.679,11.751c3.357,2.518,9.233,1.679,11.751-1.679
		l15.108-20.144c1.679-1.679,1.679-4.197,1.679-5.875c0-1.679-1.679-4.197-3.357-5.875
		C330.541,216.961,328.862,216.122,327.184,216.122z"/>
	<path d="M372.508,389.866H40.967c-10.911,0-21.823-5.036-27.698-13.43c-5.036-6.715-11.751-21.823,4.197-41.967
		c0.839-1.679,3.357-3.357,6.715-3.357h386.098c2.518,0,4.197-0.839,6.715-1.679c0.839-0.839,0.839-0.839,1.679-1.679
		c2.518-2.518,5.875-5.036,10.072-6.715c3.357-1.679,9.233-3.357,15.948-5.036c10.911-3.357,36.092-10.911,41.967-15.948
		c0.839-3.357,3.357-6.715,7.554-6.715c4.197-0.839,8.393,2.518,9.233,7.554v0.839l0,0l0,0v0.839l0,0
		c0.839,52.879-10.072,58.754-14.269,60.433l-4.197,1.679C449.728,381.473,411.118,389.866,372.508,389.866z M28.377,347.899
		c-7.554,10.911-3.357,16.787-1.679,18.466c2.518,4.197,8.393,6.715,14.269,6.715h331.541c36.092,0,72.184-8.393,104.918-23.502
		l3.357-1.679c1.679-2.518,4.197-13.43,5.036-27.698c-8.393,4.197-20.984,7.554-36.092,12.59
		c-6.715,1.679-11.751,3.357-15.108,5.036c-1.679,0.839-2.518,1.679-4.197,2.518c-1.679,1.679-2.518,2.518-4.197,3.357
		c-5.036,2.518-10.911,4.197-15.948,4.197H28.377z"/>
	<path d="M410.279,347.899H24.18c-2.518,0-5.036-1.679-6.715-3.357c-39.449-54.557-3.357-98.203,7.554-109.115V154.85
		c0-5.036,3.357-8.393,8.393-8.393h0.839c6.715,0,13.43,2.518,20.144,6.715c12.59,8.393,36.092,10.072,57.075,2.518
		c21.823-6.715,39.449-20.144,45.325-34.413c0.839-2.518,2.518-4.197,5.036-5.036c4.197-1.679,8.393-2.518,11.751-3.357
		c15.948-2.518,38.61,13.43,69.666,49.521c5.036,5.875,10.911,11.751,16.787,17.626c3.357,3.357,3.357,7.554,0.839,10.911
		l-10.911,14.269c-1.679,1.679-1.679,4.197-1.679,6.715c0.839,2.518,2.518,4.197,4.197,5.875c3.357,1.679,8.393,0,10.911-3.357
		l9.233-12.59c2.518-3.357,7.554-4.197,11.751-1.679c9.233,6.715,17.626,11.751,25.18,16.787c2.518,0.839,3.357,3.357,4.197,5.875
		s0,5.036-1.679,6.715l-7.554,10.072c-1.679,1.679-1.679,4.197-1.679,6.715c0.839,2.518,2.518,4.197,4.197,5.875
		c3.357,1.679,8.393,0,10.911-3.357l10.911-14.269c2.518-3.357,6.715-4.197,10.072-2.518l67.148,26.859h0.839
		c0,0,25.18,13.43,47.003,13.43h4.197c35.252,0,41.128,20.144,42.807,28.538c1.679,13.43-15.948,20.144-53.718,31.056
		c-6.715,1.679-11.751,3.357-15.108,5.036c-1.679,0.839-3.357,1.679-4.197,2.518C425.387,345.381,417.833,347.899,410.279,347.899z
		 M28.377,331.112h381.902c3.357,0,5.875-0.839,7.554-2.518c2.518-3.357,6.715-5.036,10.072-6.715
		c3.357-1.679,9.233-3.357,15.948-5.036c10.911-3.357,35.252-10.911,41.128-15.108c-2.518-9.233-15.108-11.751-25.18-11.751h-4.197
		c-25.18,0-51.2-13.43-54.557-15.108l-61.272-24.341l-6.715,9.233c-7.554,10.072-21.823,13.43-31.895,7.554
		c-6.715-3.357-10.911-9.233-12.59-16.787c-1.679-7.554,0-15.108,4.197-20.984l1.679-2.518c-4.197-2.518-7.554-5.036-11.751-7.554
		l-4.197,5.875c-7.554,10.072-21.823,13.43-31.895,7.554c-6.715-3.357-10.911-9.233-12.59-16.787s0-15.108,4.197-20.984l6.715-8.393
		c-5.036-5.036-9.233-9.233-12.59-14.269c-36.931-39.449-51.2-42.807-54.557-42.807h-0.839c-1.679,0-4.197,0.839-5.875,1.679
		c-8.393,17.626-28.538,32.734-52.879,41.128c-26.859,8.393-54.557,6.715-72.184-5.036c-2.518-0.839-3.357-1.679-5.036-2.518v73.862
		c0,2.518-0.839,5.036-3.357,6.715C35.931,246.338-3.518,282.43,28.377,331.112z"/>
	<path d="M32.574,163.243c-5.036,0-8.393-3.357-8.393-8.393c0-9.233-7.554-16.787-16.787-16.787c-5.036,0-8.393-3.357-8.393-8.393
		c0-5.036,3.357-8.393,8.393-8.393c18.466,0,33.574,15.108,33.574,33.574C40.967,159.886,37.61,163.243,32.574,163.243z"/>
	<path d="M119.026,347.899H37.61c-2.518,0-5.036-0.839-6.715-3.357c-1.679-2.518-2.518-4.197-1.679-6.715l6.715-38.61
		c0-0.839,0-0.839,0.839-1.679c0,0,31.056-75.541,55.397-133.456c0.839-2.518,3.357-5.036,6.715-5.036
		c5.036-0.839,10.072-1.679,14.269-3.357c20.144-6.715,37.77-20.144,43.646-34.413c0.839-2.518,2.518-4.197,5.036-5.036
		c4.197-1.679,8.393-2.518,11.751-3.357c15.948-2.518,38.61,13.43,69.666,49.521l0.839,0.839c2.518,3.357,2.518,7.554,0,10.911
		c-44.485,53.718-94.007,133.456-99.043,146.885c-4.197,10.911-10.911,19.305-20.984,26.02
		C121.544,347.899,119.866,347.899,119.026,347.899z M47.682,331.112h67.987c5.875-4.197,10.072-10.072,12.59-15.948
		c5.875-15.948,54.557-94.007,97.364-146.885c-31.056-36.092-44.485-38.61-47.843-38.61h-0.839c-1.679,0-4.197,0.839-5.875,1.679
		c-8.393,17.626-28.538,32.734-52.879,41.128c-4.197,0.839-7.554,2.518-11.751,3.357c-23.502,52.879-50.361,119.187-54.557,127.58
		L47.682,331.112z"/>
	<path d="M403.564,347.899h-83.934c-2.518,0-5.036-0.839-6.715-3.357c-1.679-1.679-2.518-4.197-1.679-6.715l5.875-35.252
		c0-0.839,0.839-2.518,0.839-3.357c0.839-0.839,17.626-27.698,38.61-54.557c2.518-2.518,5.875-4.197,10.072-2.518l40.289,15.948
		h0.839c0,0,23.502,12.59,45.325,13.43c3.357,0,6.715,2.518,7.554,5.875c0.839,3.357,0,6.715-2.518,9.233
		c-20.984,18.466-31.895,31.895-33.574,36.931c-3.357,8.393-8.393,15.948-16.787,22.662
		C406.921,347.06,405.243,347.899,403.564,347.899z M328.862,331.112h71.344c4.197-4.197,7.554-8.393,9.233-13.43
		c3.357-8.393,14.269-20.984,25.18-31.056c-16.787-4.197-31.056-10.911-34.413-12.59l-34.413-13.43
		c-16.787,20.984-29.377,41.128-33.574,47.003L328.862,331.112z"/>
	<path d="M234.016,314.325c-18.466,0-33.574-15.108-33.574-33.574s15.108-33.574,33.574-33.574s33.574,15.108,33.574,33.574
		S252.482,314.325,234.016,314.325z M234.016,263.965c-9.233,0-16.787,7.554-16.787,16.787s7.554,16.787,16.787,16.787
		c9.233,0,16.787-7.554,16.787-16.787S243.249,263.965,234.016,263.965z"/>
	<path d="M150.082,230.391h-33.574c-5.036,0-8.393-3.357-8.393-8.393s3.357-8.393,8.393-8.393h33.574
		c5.036,0,8.393,3.357,8.393,8.393S155.118,230.391,150.082,230.391z"/>
	<path d="M166.869,196.817h-33.574c-5.036,0-8.393-3.357-8.393-8.393s3.357-8.393,8.393-8.393h33.574
		c5.036,0,8.393,3.357,8.393,8.393S171.905,196.817,166.869,196.817z"/>
	<path d="M133.295,263.965H99.721c-5.036,0-8.393-3.357-8.393-8.393c0-5.036,3.357-8.393,8.393-8.393h33.574
		c5.036,0,8.393,3.357,8.393,8.393C141.689,260.607,138.331,263.965,133.295,263.965z"/>
	<path d="M116.508,297.538H82.934c-5.036,0-8.393-3.357-8.393-8.393s3.357-8.393,8.393-8.393h33.574
		c5.036,0,8.393,3.357,8.393,8.393S121.544,297.538,116.508,297.538z"/>
</g>
</svg>